<svg width="226" height="61" viewBox="0 0 226 61" fill="none" xmlns="http://www.w3.org/2000/svg">
<path d="M0 0H226V25C226 44.8822 209.882 61 190 61H36C16.1178 61 0 44.8822 0 25V0Z" fill="#332804" fill-opacity="0.85"/>
<path d="M46.81 19.9C48.65 19.9 50.23 20.21 51.55 20.83C52.87 21.43 54.03 22.39 55.03 23.71L52.18 26.5C51.66 25.42 50.97 24.62 50.11 24.1C49.25 23.56 48.16 23.29 46.84 23.29C45.64 23.29 44.71 23.52 44.05 23.98C43.41 24.42 43.09 25.01 43.09 25.75C43.09 26.43 43.42 26.97 44.08 27.37C44.74 27.77 45.93 28.12 47.65 28.42C49.45 28.76 50.88 29.18 51.94 29.68C53 30.18 53.77 30.81 54.25 31.57C54.75 32.31 55 33.24 55 34.36C55 35.58 54.65 36.64 53.95 37.54C53.27 38.42 52.31 39.1 51.07 39.58C49.85 40.06 48.45 40.3 46.87 40.3C44.69 40.3 42.9 40 41.5 39.4C40.12 38.78 39 37.85 38.14 36.61L40.6 33.67C41.34 34.89 42.19 35.74 43.15 36.22C44.11 36.68 45.3 36.91 46.72 36.91C48 36.91 48.97 36.71 49.63 36.31C50.31 35.91 50.65 35.34 50.65 34.6C50.65 34.06 50.33 33.61 49.69 33.25C49.07 32.89 47.95 32.55 46.33 32.23C44.47 31.85 42.98 31.4 41.86 30.88C40.76 30.36 39.96 29.72 39.46 28.96C38.96 28.2 38.71 27.26 38.71 26.14C38.71 24.96 39.03 23.9 39.67 22.96C40.31 22 41.24 21.25 42.46 20.71C43.7 20.17 45.15 19.9 46.81 19.9ZM67.4073 19.9C69.3473 19.9 71.0273 20.31 72.4473 21.13C73.8873 21.95 74.9873 23.13 75.7473 24.67C76.5273 26.19 76.9173 28 76.9173 30.1C76.9173 32.2 76.5273 34.02 75.7473 35.56C74.9873 37.08 73.8873 38.25 72.4473 39.07C71.0273 39.89 69.3473 40.3 67.4073 40.3C65.4673 40.3 63.7773 39.89 62.3373 39.07C60.8973 38.25 59.7873 37.08 59.0073 35.56C58.2473 34.02 57.8673 32.2 57.8673 30.1C57.8673 28 58.2473 26.19 59.0073 24.67C59.7873 23.13 60.8973 21.95 62.3373 21.13C63.7773 20.31 65.4673 19.9 67.4073 19.9ZM67.4073 23.29C65.7273 23.29 64.4273 23.88 63.5073 25.06C62.6073 26.22 62.1573 27.9 62.1573 30.1C62.1573 32.3 62.6073 33.99 63.5073 35.17C64.4273 36.33 65.7273 36.91 67.4073 36.91C69.0673 36.91 70.3473 36.33 71.2473 35.17C72.1673 33.99 72.6273 32.3 72.6273 30.1C72.6273 27.9 72.1673 26.22 71.2473 25.06C70.3473 23.88 69.0673 23.29 67.4073 23.29ZM95.6737 36.67V40H81.0937V20.2H85.2337V36.67H95.6737ZM106.761 20.2C109.861 20.2 112.261 21.06 113.961 22.78C115.661 24.5 116.511 26.94 116.511 30.1C116.511 33.26 115.661 35.7 113.961 37.42C112.261 39.14 109.861 40 106.761 40H99.1113V20.2H106.761ZM106.551 36.7C108.431 36.7 109.841 36.14 110.781 35.02C111.741 33.88 112.221 32.24 112.221 30.1C112.221 27.96 111.741 26.33 110.781 25.21C109.841 24.07 108.431 23.5 106.551 23.5H103.251V36.7H106.551ZM138.394 19.9C140.334 19.9 142.014 20.31 143.434 21.13C144.874 21.95 145.974 23.13 146.734 24.67C147.514 26.19 147.904 28 147.904 30.1C147.904 32.2 147.514 34.02 146.734 35.56C145.974 37.08 144.874 38.25 143.434 39.07C142.014 39.89 140.334 40.3 138.394 40.3C136.454 40.3 134.764 39.89 133.324 39.07C131.884 38.25 130.774 37.08 129.994 35.56C129.234 34.02 128.854 32.2 128.854 30.1C128.854 28 129.234 26.19 129.994 24.67C130.774 23.13 131.884 21.95 133.324 21.13C134.764 20.31 136.454 19.9 138.394 19.9ZM138.394 23.29C136.714 23.29 135.414 23.88 134.494 25.06C133.594 26.22 133.144 27.9 133.144 30.1C133.144 32.3 133.594 33.99 134.494 35.17C135.414 36.33 136.714 36.91 138.394 36.91C140.054 36.91 141.334 36.33 142.234 35.17C143.154 33.99 143.614 32.3 143.614 30.1C143.614 27.9 143.154 26.22 142.234 25.06C141.334 23.88 140.054 23.29 138.394 23.29ZM168.7 32.2C168.7 34.88 167.98 36.9 166.54 38.26C165.12 39.62 163.02 40.3 160.24 40.3C157.46 40.3 155.35 39.62 153.91 38.26C152.49 36.9 151.78 34.88 151.78 32.2V20.2H155.92V32.02C155.92 33.68 156.27 34.91 156.97 35.71C157.69 36.51 158.78 36.91 160.24 36.91C161.7 36.91 162.78 36.51 163.48 35.71C164.18 34.91 164.53 33.68 164.53 32.02V20.2H168.7V32.2ZM189.185 23.53H182.555V40H178.415V23.53H171.755V20.2H189.185V23.53Z" fill="white"/>
</svg>
