<svg width="44" height="39" viewBox="0 0 44 39" fill="none"
    xmlns="http://www.w3.org/2000/svg">
    <path d="M38.9156 5.08437C37.9382 4.10654 36.7778 3.33085 35.5005 2.80162C34.2233 2.27239 32.8543 2 31.4718 2C30.0892 2 28.7202 2.27239 27.443 2.80162C26.1657 3.33085 25.0053 4.10654 24.0279 5.08437L21.9995 7.11278L19.9711 5.08437C17.9968 3.11014 15.3192 2.00102 12.5272 2.00102C9.73523 2.00102 7.05759 3.11014 5.08335 5.08437C3.10911 7.05861 2 9.73625 2 12.5282C2 15.3202 3.10911 17.9979 5.08335 19.9721L7.11176 22.0005L21.9995 36.8882L36.8872 22.0005L38.9156 19.9721C39.8935 18.9947 40.6691 17.8343 41.1984 16.557C41.7276 15.2798 42 13.9108 42 12.5282C42 11.1457 41.7276 9.7767 41.1984 8.49945C40.6691 7.22221 39.8935 6.06175 38.9156 5.08437Z" stroke="#A5A4A5" stroke-width="2.5" stroke-linecap="round" stroke-linejoin="round"/>
</svg>
