<svg width="43" height="42" viewBox="0 0 43 42" fill="none"
    xmlns="http://www.w3.org/2000/svg">
    <path d="M0.986816 0V41.9603C2.12518 41.9603 2.68271 41.2532 3.3296 40.4334C3.99397 39.5903 4.7477 38.6345 6.23185 38.6345C7.716 38.6345 8.46973 39.5903 9.1341 40.4334C9.78099 41.2532 10.3385 41.9603 11.4769 41.9603C12.6152 41.9603 13.1728 41.2532 13.8197 40.4334C14.484 39.5903 15.2378 38.6345 16.7219 38.6345C18.2061 38.6345 18.9598 39.5903 19.6242 40.4334C20.2711 41.2532 20.8286 41.9603 21.9669 41.9603C23.1053 41.9603 23.6628 41.2532 24.3097 40.4334C24.9741 39.5903 25.7278 38.6345 27.212 38.6345C28.6961 38.6345 29.4499 39.5903 30.1142 40.4334C30.7611 41.2532 31.3186 41.9603 32.457 41.9603C33.5954 41.9603 34.1529 41.2532 34.7998 40.4334C35.4642 39.5903 36.2179 38.6345 37.702 38.6345C39.1862 38.6345 39.9399 39.5903 40.6043 40.4334C41.2512 41.2532 41.8087 41.9603 42.9471 41.9603V0H0.986816Z" fill="#0A090A"/>
</svg>
