<svg width="40" height="35" viewBox="0 0 40 35" fill="none"
    xmlns="http://www.w3.org/2000/svg">
    <path d="M36.9156 3.08437C35.9382 2.10654 34.7778 1.33085 33.5005 0.801621C32.2233 0.272394 30.8543 0 29.4718 0C28.0892 0 26.7202 0.272394 25.443 0.801621C24.1657 1.33085 23.0053 2.10654 22.0279 3.08437L19.9995 5.11278L17.9711 3.08437C15.9968 1.11014 13.3192 0.00102332 10.5272 0.00102334C7.73523 0.00102336 5.05759 1.11014 3.08335 3.08437C1.10911 5.05861 2.0802e-08 7.73625 0 10.5282C-2.0802e-08 13.3202 1.10911 15.9979 3.08335 17.9721L5.11176 20.0005L19.9995 34.8882L34.8872 20.0005L36.9156 17.9721C37.8935 16.9947 38.6691 15.8343 39.1984 14.557C39.7276 13.2798 40 11.9108 40 10.5282C40 9.14569 39.7276 7.7767 39.1984 6.49945C38.6691 5.22221 37.8935 4.06175 36.9156 3.08437Z" fill="#FF2231"/>
</svg>
